<?xml version="1.0" encoding="utf-8"?>
<!-- Generator: Adobe Illustrator 15.0.2, SVG Export Plug-In . SVG Version: 6.00 Build 0)  -->
<!DOCTYPE svg PUBLIC "-//W3C//DTD SVG 1.1//EN" "http://www.w3.org/Graphics/SVG/1.1/DTD/svg11.dtd">
<svg version="1.1" id="Ebene_1" xmlns="http://www.w3.org/2000/svg" xmlns:xlink="http://www.w3.org/1999/xlink" x="0px" y="0px"
	 width="1133.857px" height="1603.601px" viewBox="0 0 1133.857 1603.601" enable-background="new 0 0 1133.857 1603.601"
	 xml:space="preserve">
<g enable-background="new    ">
	<path fill="#395BA6" d="M388.368,47.164c-0.359,0-0.853-0.145-1.48-0.438c-0.629-0.292-1.144-0.392-1.548-0.303l-6.93,1.884v35.391
		c0,1.302,0.313,2.715,0.942,4.239c0.178,0.45,0.134,1.301-0.135,2.558c-0.269,1.39-0.696,2.264-1.278,2.624
		c-0.09,0.043-0.314,0.067-0.673,0.067c-1.48,0-3.544-0.293-6.19-0.875c-2.96-0.673-4.71-1.324-5.248-1.951
		c-0.628-0.807-0.606-1.884,0.067-3.23c0.583-1.166,0.875-2.018,0.875-2.557V51.269l-4.777,1.21
		c-0.226,0.046-0.595,0.236-1.11,0.572c-0.516,0.337-0.954,0.461-1.312,0.37c-1.032-0.269-2.445-1.604-4.239-4.003
		c-1.795-2.399-2.579-4.025-2.355-4.878c0.358-1.031,1.413-1.817,3.162-2.355c0.448-0.134,1.031-0.156,1.75-0.067
		c0.717,0.09,1.278,0.09,1.682,0l23.414-5.988c0.225-0.044,0.875-0.314,1.952-0.807c0.717-0.314,1.368-0.426,1.951-0.337
		c1.255,0.179,2.108,0.673,2.557,1.48c0.313,0.539,0.65,1.548,1.009,3.028c0.448,1.749,0.673,3.275,0.673,4.575
		c0,0.987-0.124,1.739-0.37,2.254C390.51,46.839,389.714,47.12,388.368,47.164z"/>
	<path fill="#395BA6" d="M433.448,65.533c-0.045,0.628-0.572,1.402-1.582,2.321c-1.009,0.919-1.738,1.379-2.187,1.379
		c-0.628,0-1.009,0.023-1.144,0.067v16.955c0-0.135,0.224,0.696,0.672,2.489c0.404,2.871,0.067,4.553-1.009,5.047
		c-0.226,0.089-0.564,0.135-1.016,0.135c-1.581,0-3.611-0.562-6.092-1.682c-2.663-1.168-4.286-2.332-4.869-3.5
		c-0.045-0.403-0.112-1.008-0.202-1.815c-0.09-0.314,0.067-0.741,0.471-1.279c0.404-0.538,0.606-0.875,0.606-1.009V71.049
		c-0.853,0.091-2.535,0.427-5.046,1.009c-2.513,0.583-4.172,1.033-4.979,1.346v13.658c0,0.314,0.145,0.685,0.437,1.111
		c0.292,0.427,0.46,0.751,0.505,0.975c-0.18,0.718-0.336,1.413-0.471,2.086c-0.134,0.492-0.381,0.808-0.74,0.942
		c-0.718,0.268-2.725-0.146-6.022-1.245c-3.296-1.099-5.035-1.985-5.214-2.658c-0.135-0.493-0.18-1.031-0.135-1.614
		c0.135-0.896,0.202-1.524,0.202-1.884V41.714c0-0.716,0.202-1.951,0.606-3.7c0.089-0.449,0.852-1.077,2.287-1.884
		c0.09-0.044,0.337-0.067,0.741-0.067c1.659,0,3.408,0.269,5.248,0.808c2.376,0.718,3.633,1.66,3.768,2.826
		c0.044,0.403-0.147,1.167-0.572,2.288c-0.427,1.122-0.639,1.884-0.639,2.288v16.417c3.05-0.762,6.392-1.547,10.025-2.354
		c0-12.425,0-18.682,0-18.772c0-0.089-0.101-0.426-0.303-1.009c-0.202-0.583-0.258-1.053-0.168-1.413
		c0.225-0.808,0.969-1.323,2.233-1.548c0.946-0.135,1.894-0.246,2.841-0.336c0.992-0.135,2.446,0.157,4.364,0.875
		c1.917,0.718,2.987,1.48,3.211,2.288c0.09,0.359,0,0.831-0.269,1.413c-0.314,0.763-0.471,1.391-0.471,1.883v18.571
		c0.224,0.269,1.278,1.234,3.162,2.893C432.909,64.254,433.491,65.04,433.448,65.533z"/>
	<path fill="#395BA6" d="M468.702,83.497c-0.134,0.764-0.528,1.582-1.178,2.456c-0.65,0.875-1.223,1.402-1.715,1.582
		c-0.135,0.045-0.382-0.034-0.74-0.235c-0.359-0.202-0.65-0.303-0.875-0.303c-0.09,0-0.18,0.023-0.27,0.067
		c-1.391,0.404-2.781,0.942-4.171,1.615c-3.321,1.525-6.371,3.475-9.151,5.854c-4.486-1.84-6.93-2.849-7.334-3.028
		c-2.782-1.21-4.171-2.108-4.171-2.691V38.215c0-0.313,0.526-0.762,1.581-1.345c1.054-0.583,1.828-0.852,2.322-0.808
		c0.538,0.044,1.615,0.393,3.229,1.042c1.615,0.651,2.938,0.977,3.97,0.977c1.346,0,3.095-0.606,5.248-1.817
		c1.973-1.166,3.207-1.659,3.701-1.481c1.076,0.36,2.68,1.537,4.811,3.533c2.13,1.996,3.285,3.421,3.465,4.271
		c0.089,0.404-0.326,1.101-1.245,2.086c-0.92,0.988-1.672,1.48-2.254,1.48c-0.494,0-0.852-0.066-1.076-0.201
		c-0.225-0.135-0.382-0.18-0.471-0.135c-1.615,0.359-3.118,0.785-4.508,1.278c-3.32,1.122-5.765,2.423-7.334,3.903v10.967
		c1.569-0.807,3.61-1.637,6.123-2.49c0.717-0.089,2.231,0.909,4.542,2.995c2.31,2.085,3.465,3.532,3.465,4.339
		c0,0.495-0.314,1.077-0.942,1.75c-0.629,0.673-1.234,1.1-1.816,1.279c-0.449,0-1.234,0.044-2.355,0.135
		c-1.706,0.314-4.71,1.75-9.016,4.306v7.064c1.346-0.808,3.173-1.76,5.483-2.859c2.31-1.1,3.735-1.648,4.272-1.648
		c0.627,0,2.209,0.975,4.744,2.926C467.569,81.714,468.792,82.959,468.702,83.497z"/>
	<path fill="#395BA6" d="M547.76,90.158c-0.314,1.928-0.853,2.983-1.615,3.162c-1.077,0.269-3.141-0.023-6.19-0.875
		c-3.23-0.897-5.07-1.793-5.518-2.691c-0.135-0.313-0.202-0.649-0.202-1.01c0-0.269,0.056-0.706,0.168-1.312
		c0.112-0.605,0.168-1.11,0.168-1.513V55.373c-2.109,4.128-4.868,13.412-8.276,27.855c-0.045,0.18-0.067,0.382-0.067,0.605
		c0,0.449,0.078,1.167,0.235,2.153c0.157,0.987,0.235,1.615,0.235,1.883c-0.045,1.392-0.112,2.288-0.201,2.691
		c-0.225,0.897-0.696,1.435-1.413,1.616c-0.449,0.134-1.234,0.201-2.355,0.201c-5.831,0-9.846-1.009-12.043-3.027
		c-0.36-0.313-0.494-0.875-0.404-1.682c0.09-0.987,0.09-1.637,0-1.952c-1.66-5.113-3.14-9.598-4.44-13.457
		c-3.14-9.329-5.181-14.825-6.123-16.484v26.778c0,0.584,0.179,1.392,0.539,2.423c0.448,1.256,0.695,2.042,0.74,2.354
		c0.179,0.897,0.224,1.974,0.135,3.229c-0.09,1.524-0.403,2.466-0.942,2.826c-0.269,0.18-0.786,0.27-1.547,0.27
		c-1.66,0-3.633-0.292-5.921-0.875c-2.468-0.583-3.926-1.188-4.374-1.817c-0.225-0.313-0.336-0.695-0.336-1.144
		c0-0.269,0.078-0.717,0.235-1.346c0.157-0.628,0.235-1.121,0.235-1.48V39.292c0-0.538,0.224-1.155,0.673-1.85
		c0.448-0.695,0.964-1.154,1.547-1.379c0.762-0.313,3.701,0.225,8.815,1.615c5.337,1.391,8.163,2.602,8.477,3.633
		c0.135,0.403,0.157,0.942,0.067,1.615c-0.134,0.942-0.202,1.504-0.202,1.682c0,0.404,0.067,0.764,0.202,1.077l9.083,24.423
		c1.255-3.991,3.542-12.088,6.862-24.289c1.659-6.235,3.005-9.488,4.037-9.756c0.313-0.089,0.673-0.134,1.077-0.134
		c0.762,0,2.041,0.202,3.835,0.605c1.974,0.494,3.341,0.764,4.104,0.807c3.543,0.315,5.584,0.516,6.123,0.606
		c2.108,0.403,3.297,1.143,3.566,2.22c0.089,0.315,0.135,0.651,0.135,1.009c0,0.449-0.113,1.088-0.336,1.917
		c-0.226,0.831-0.337,1.447-0.337,1.851v41.177c0,0.45,0.28,1.123,0.841,2.019C547.614,89.038,547.849,89.71,547.76,90.158z"/>
	<path fill="#395BA6" d="M574.403,92.984c-0.941,0.089-1.996-0.034-3.162-0.37c-1.167-0.336-2.311-0.685-3.432-1.043
		c-1.346-0.359-3.455-1.009-6.325-1.95c-3.589-1.57-6.302-4.666-8.141-9.286c-1.615-4.082-2.423-9.016-2.423-14.802
		c0-4.71,0.808-10.204,2.423-16.485c2.197-8.433,5.046-12.649,8.545-12.649c0.313,0,0.75,0.08,1.312,0.236
		c0.56,0.157,0.998,0.258,1.312,0.303c3.319-0.942,5.45-1.414,6.391-1.414c0.447,0,0.897,0.023,1.346,0.067
		c5.383,0.673,9.623,4.037,12.717,10.093c2.781,5.473,4.172,12,4.172,19.579c0,7.178-1.256,13.345-3.768,18.503
		C582.678,89.374,579.022,92.445,574.403,92.984z M573.192,43.666c-0.986-0.269-1.963,1.055-2.927,3.97
		c-0.965,2.917-1.94,4.374-2.926,4.374c-0.226,0-0.55-0.124-0.977-0.37s-0.773-0.393-1.042-0.437
		c-1.525,3.364-2.288,8.164-2.288,14.398c0,4.89,0.515,9.083,1.547,12.581c1.166,3.903,2.781,6.057,4.845,6.46
		c2.423,0.448,4.373-2.041,5.853-7.468c1.302-4.754,1.952-10.406,1.952-16.956c0-4.44-0.336-8.164-1.009-11.169
		C575.501,45.819,574.493,44.025,573.192,43.666z"/>
	<path fill="#395BA6" d="M631.054,39.09c0,0.494-0.09,0.966-0.269,1.414c-0.314,0.763-0.517,1.369-0.605,1.816v44.407
		c0-0.135,0.111,0.695,0.336,2.489c0.27,2.062,0.002,3.408-0.802,4.037c-0.804,0.628-2.61,0.808-5.42,0.539
		c-1.606-0.135-3.457-0.562-5.553-1.279c-2.736-0.852-4.238-1.749-4.508-2.691c0.045-0.627-0.023-1.592-0.202-2.893
		c-2.512-6.639-5.428-13.929-8.746-21.868v19.916c0,0.36,0.157,0.83,0.47,1.413c0.404,0.764,0.606,1.167,0.606,1.211
		c0.224,0.672,0.337,1.345,0.337,2.019c0,1.793-0.809,2.69-2.423,2.69c-1.571,0-3.791-0.449-6.66-1.346
		c-2.691-0.896-4.217-1.592-4.576-2.086c-0.538-0.716-0.538-1.636,0-2.759c0.539-1.12,0.808-1.816,0.808-2.085V41.849
		c0-0.269-0.067-0.673-0.202-1.21c-0.135-0.539-0.157-0.965-0.066-1.279c0.448-1.525,1.322-2.557,2.624-3.095
		c0.224-0.09,0.716-0.135,1.479-0.135c1.75,0,3.543,0.225,5.383,0.673c2.378,0.538,4.037,1.301,4.979,2.287
		c1.256,1.346,2.894,5.45,4.913,12.313c2.466,8.433,4.395,14.129,5.785,17.089V42.051c0-0.359-0.09-0.863-0.269-1.514
		c-0.18-0.65-0.27-1.154-0.27-1.514c0-0.269,0.044-0.515,0.135-0.74c0.223-0.762,1.07-1.323,2.542-1.682
		c1.16-0.313,2.274-0.426,3.346-0.336c1.025,0.09,2.251,0.336,3.679,0.74C629.96,37.633,631.01,38.328,631.054,39.09z"/>
	<path fill="#395BA6" d="M668.463,58.266c0,4.89-1.322,10.205-3.97,15.946c-2.107,4.62-4.754,8.971-7.938,13.052
		c-2.827,3.499-4.913,5.54-6.258,6.123c-0.674,0.27-1.437,0.404-2.288,0.404c-1.976,0-4.216-0.629-6.728-1.884
		c-2.244-1.031-3.926-2.153-5.047-3.364V40.099c0.134-1.166,0.808-1.86,2.019-2.085c0.135-0.045,1.256,0.112,3.363,0.471
		c0.404,0.045,1.738-0.426,4.004-1.413c2.266-0.986,4.204-1.48,5.821-1.48c1.973,0,3.856,0.516,5.649,1.548
		c1.032,0.628,2.581,1.84,4.644,3.633c3.005,2.602,4.955,5.339,5.853,8.208C668.171,50.91,668.463,54.005,668.463,58.266z
		 M657.234,45.28c-0.224-0.134-0.58-0.201-1.07-0.201c-2.362,0-5.192,1.032-8.49,3.095v30.277c3.03-1.749,5.614-6.032,7.754-12.851
		c1.827-5.876,2.742-11.213,2.742-16.013C658.17,47.075,657.856,45.639,657.234,45.28z"/>
	<path fill="#395BA6" d="M710.987,88.207c-0.045,0.404-0.135,1.369-0.27,2.893c-0.045,0.808-0.226,1.413-0.538,1.817
		c-0.225,0.135-0.605,0.202-1.145,0.202c-1.479,0-3.318-0.382-5.518-1.144c-2.377-0.718-3.992-1.57-4.844-2.557
		c-0.358-0.404-0.717-1.75-1.075-4.038c-0.496-3.004-1.056-5.494-1.684-7.468c-1.705,0.225-4.194,0.84-7.468,1.85
		c-3.274,1.009-5.405,1.851-6.392,2.523c-0.674,1.929-1.571,4.306-2.69,7.132c-0.135,0.628-0.281,1.223-0.438,1.782
		c-0.157,0.561-0.551,1.02-1.179,1.379c-0.133,0.089-0.336,0.135-0.604,0.135c-1.076,0-2.883-0.562-5.415-1.682
		c-2.535-1.12-3.849-1.861-3.938-2.221c-0.18-0.627,0.247-2.174,1.279-4.642c1.434-3.589,2.263-5.787,2.489-6.594
		c-0.943-0.942-1.414-1.884-1.414-2.826c0-0.224,0.023-0.47,0.068-0.74c0.09-0.538,1.457-1.503,4.104-2.894l8.68-29.671
		c0.133-0.539,0.155-1.524,0.066-2.96c-0.091-1.212,0.044-1.974,0.404-2.288c0.224-0.224,0.761-0.336,1.614-0.336
		c2.108,0,5.113,0.538,9.017,1.614c3.902,1.077,6.234,2.042,6.997,2.894c0.27,4.979,1.279,12.447,3.028,22.405
		C706.367,75.065,708.654,83.542,710.987,88.207z M693.426,67.752c-0.582-2.826-0.94-4.686-1.075-5.584
		c-0.496-3.004-0.831-6.123-1.01-9.352c-0.897,2.198-1.952,5.248-3.163,9.151c-1.302,4.082-1.996,6.639-2.085,7.67
		C686.944,69.278,689.388,68.651,693.426,67.752z"/>
	<path fill="#395BA6" d="M750.08,41.311c0.268,2.333-0.27,3.813-1.616,4.441c-0.763,0.359-1.122,0.538-1.076,0.538
		c-2.602,3.993-6.033,11.013-10.295,21.061c-3.992,9.509-6.077,15.229-6.257,17.157c-0.044,0.359,0.045,0.987,0.269,1.884
		c0.225,0.898,0.313,1.638,0.27,2.221c-0.27,3.05-1.032,4.687-2.288,4.911c-0.628,0.089-2.186-0.247-4.675-1.009
		s-4.161-1.413-5.013-1.951c-1.525-1.076-2.288-2.153-2.288-3.229c0-0.538,0.157-1.144,0.471-1.816
		c0.628-1.75,1.952-5.337,3.971-10.766c-3.725-7.67-6.236-12.962-7.536-15.878c-2.603-5.831-4.441-10.608-5.518-14.332
		c-0.091-0.224-0.347-0.56-0.773-1.009c-0.428-0.448-0.64-0.851-0.64-1.211c0-0.673,0.874-1.682,2.624-3.028
		c3.723-2.87,6.28-4.216,7.671-4.037c0.717,0.09,1.368,0.561,1.95,1.413c0.493,0.672,0.785,1.279,0.875,1.817
		c0,0.853,0.135,2.221,0.404,4.104c1.031,5.563,3.184,11.597,6.458,18.1c2.512-6.145,3.926-9.531,4.24-10.159
		c1.704-3.812,3.634-7.379,5.785-10.698c0.181-0.717,0.493-1.637,0.943-2.759c0.896-1.031,2.107-1.457,3.633-1.278
		c1.076,0.135,2.725,0.92,4.944,2.354C748.834,39.584,749.989,40.638,750.08,41.311z"/>
</g>
<polyline fill="none" stroke="#F29100" stroke-width="8" stroke-linecap="round" stroke-linejoin="round" stroke-miterlimit="10" points="
	31.242,26.774 67.056,62.589 31.242,98.404 "/>
<polyline fill="none" stroke="#F29100" stroke-width="8" stroke-linecap="round" stroke-linejoin="round" stroke-miterlimit="10" points="
	76.799,26.774 112.613,62.589 76.799,98.404 "/>
<polyline fill="none" stroke="#F29100" stroke-width="8" stroke-linecap="round" stroke-linejoin="round" stroke-miterlimit="10" points="
	122.355,26.774 158.17,62.589 122.355,98.404 "/>
<polyline fill="none" stroke="#F29100" stroke-width="8" stroke-linecap="round" stroke-linejoin="round" stroke-miterlimit="10" points="
	167.912,26.774 203.726,62.589 167.912,98.404 "/>
<polyline fill="none" stroke="#F29100" stroke-width="8" stroke-linecap="round" stroke-linejoin="round" stroke-miterlimit="10" points="
	213.468,26.774 249.282,62.589 213.468,98.404 "/>
<polyline fill="none" stroke="#F29100" stroke-width="8" stroke-linecap="round" stroke-linejoin="round" stroke-miterlimit="10" points="
	259.025,26.774 294.839,62.589 259.025,98.404 "/>
<polyline fill="none" stroke="#F29100" stroke-width="8" stroke-linecap="round" stroke-linejoin="round" stroke-miterlimit="10" points="
	304.581,26.774 340.396,62.589 304.581,98.404 "/>
<polyline fill="none" stroke="#F29100" stroke-width="8" stroke-linecap="round" stroke-linejoin="round" stroke-miterlimit="10" points="
	760.147,26.774 795.962,62.589 760.147,98.404 "/>
<polyline fill="none" stroke="#F29100" stroke-width="8" stroke-linecap="round" stroke-linejoin="round" stroke-miterlimit="10" points="
	805.703,26.774 841.517,62.589 805.703,98.404 "/>
<polyline fill="none" stroke="#F29100" stroke-width="8" stroke-linecap="round" stroke-linejoin="round" stroke-miterlimit="10" points="
	851.26,26.774 887.073,62.589 851.26,98.404 "/>
<polyline fill="none" stroke="#F29100" stroke-width="8" stroke-linecap="round" stroke-linejoin="round" stroke-miterlimit="10" points="
	896.816,26.774 932.631,62.589 896.816,98.404 "/>
<polyline fill="none" stroke="#F29100" stroke-width="8" stroke-linecap="round" stroke-linejoin="round" stroke-miterlimit="10" points="
	942.372,26.774 978.187,62.589 942.372,98.404 "/>
<polyline fill="none" stroke="#F29100" stroke-width="8" stroke-linecap="round" stroke-linejoin="round" stroke-miterlimit="10" points="
	987.929,26.774 1023.743,62.589 987.929,98.404 "/>
<polyline fill="none" stroke="#F29100" stroke-width="8" stroke-linecap="round" stroke-linejoin="round" stroke-miterlimit="10" points="
	1033.486,26.774 1069.301,62.589 1033.486,98.404 "/>
<polyline fill="none" stroke="#F29100" stroke-width="8" stroke-linecap="round" stroke-linejoin="round" stroke-miterlimit="10" points="
	1079.042,26.774 1114.858,62.589 1079.042,98.404 "/>
<polyline fill="none" stroke="#395BA6" stroke-width="8" stroke-miterlimit="10" points="31.242,1505.587 67.056,1541.404 
	31.242,1577.218 "/>
<polyline fill="none" stroke="#395BA6" stroke-width="8" stroke-miterlimit="10" points="76.799,1505.587 112.613,1541.404 
	76.799,1577.218 "/>
<polyline fill="none" stroke="#395BA6" stroke-width="8" stroke-miterlimit="10" points="122.355,1505.587 158.17,1541.404 
	122.355,1577.218 "/>
<polyline fill="none" stroke="#395BA6" stroke-width="8" stroke-miterlimit="10" points="167.912,1505.587 203.726,1541.404 
	167.912,1577.218 "/>
<polyline fill="none" stroke="#395BA6" stroke-width="8" stroke-miterlimit="10" points="213.468,1505.587 249.282,1541.404 
	213.468,1577.218 "/>
<polyline fill="none" stroke="#395BA6" stroke-width="8" stroke-miterlimit="10" points="259.025,1505.587 294.839,1541.404 
	259.025,1577.218 "/>
<polyline fill="none" stroke="#395BA6" stroke-width="8" stroke-miterlimit="10" points="304.581,1505.587 340.396,1541.404 
	304.581,1577.218 "/>
<polyline fill="none" stroke="#395BA6" stroke-width="8" stroke-miterlimit="10" points="350.138,1505.587 385.952,1541.404 
	350.138,1577.218 "/>
<polyline fill="none" stroke="#395BA6" stroke-width="8" stroke-miterlimit="10" points="395.695,1505.587 431.51,1541.404 
	395.695,1577.218 "/>
<polyline fill="none" stroke="#395BA6" stroke-width="8" stroke-miterlimit="10" points="441.252,1505.587 477.065,1541.404 
	441.252,1577.218 "/>
<polyline fill="none" stroke="#395BA6" stroke-width="8" stroke-miterlimit="10" points="486.807,1505.587 522.621,1541.404 
	486.807,1577.218 "/>
<polyline fill="none" stroke="#395BA6" stroke-width="8" stroke-miterlimit="10" points="532.364,1505.587 568.179,1541.404 
	532.364,1577.218 "/>
<polyline fill="none" stroke="#395BA6" stroke-width="8" stroke-miterlimit="10" points="577.922,1505.587 613.736,1541.404 
	577.922,1577.218 "/>
<polyline fill="none" stroke="#395BA6" stroke-width="8" stroke-miterlimit="10" points="623.478,1505.587 659.292,1541.404 
	623.478,1577.218 "/>
<polyline fill="none" stroke="#395BA6" stroke-width="8" stroke-miterlimit="10" points="669.034,1505.587 704.849,1541.404 
	669.034,1577.218 "/>
<polyline fill="none" stroke="#395BA6" stroke-width="8" stroke-miterlimit="10" points="714.592,1505.587 750.405,1541.404 
	714.592,1577.218 "/>
<polyline fill="none" stroke="#395BA6" stroke-width="8" stroke-miterlimit="10" points="760.147,1505.587 795.962,1541.404 
	760.147,1577.218 "/>
<polyline fill="none" stroke="#395BA6" stroke-width="8" stroke-miterlimit="10" points="805.703,1505.587 841.517,1541.404 
	805.703,1577.218 "/>
<polyline fill="none" stroke="#395BA6" stroke-width="8" stroke-miterlimit="10" points="851.26,1505.587 887.073,1541.404 
	851.26,1577.218 "/>
<polyline fill="none" stroke="#395BA6" stroke-width="8" stroke-miterlimit="10" points="896.816,1505.587 932.631,1541.404 
	896.816,1577.218 "/>
<polyline fill="none" stroke="#395BA6" stroke-width="8" stroke-miterlimit="10" points="942.372,1505.587 978.187,1541.404 
	942.372,1577.218 "/>
<polyline fill="none" stroke="#395BA6" stroke-width="8" stroke-miterlimit="10" points="987.929,1505.587 1023.743,1541.404 
	987.929,1577.218 "/>
<polyline fill="none" stroke="#395BA6" stroke-width="8" stroke-miterlimit="10" points="1033.486,1505.587 1069.301,1541.404 
	1033.486,1577.218 "/>
<polyline fill="none" stroke="#395BA6" stroke-width="8" stroke-miterlimit="10" points="1079.042,1505.587 1114.858,1541.404 
	1079.042,1577.218 "/>
</svg>
