<?xml version="1.0" encoding="utf-8"?>
<!-- Generator: Adobe Illustrator 15.0.2, SVG Export Plug-In . SVG Version: 6.00 Build 0)  -->
<!DOCTYPE svg PUBLIC "-//W3C//DTD SVG 1.1//EN" "http://www.w3.org/Graphics/SVG/1.1/DTD/svg11.dtd">
<svg version="1.1" id="Ebene_1" xmlns="http://www.w3.org/2000/svg" xmlns:xlink="http://www.w3.org/1999/xlink" x="0px" y="0px"
	 width="1133.857px" height="1603.602px" viewBox="0 0 1133.857 1603.602" enable-background="new 0 0 1133.857 1603.602"
	 xml:space="preserve">
<rect x="0" y="1407.763" fill="#005A9A" width="1133.857" height="195.838"/>
<g>
	<path fill="#FFFFFF" d="M171.321,1475.208h54.067l0.514,16.248h-2.288c-1.121-5.104-2.545-8.428-4.272-9.969
		s-5.362-2.311-10.902-2.311h-5.323v48.931c0,3.685,0.576,5.968,1.728,6.85c1.151,0.883,3.672,1.463,7.563,1.741v1.774h-27.874
		v-1.774c4.046-0.31,6.567-0.976,7.563-1.998c0.996-1.022,1.494-3.593,1.494-7.713v-47.811h-5.369
		c-5.292,0-8.895,0.763-10.809,2.287c-1.914,1.525-3.354,4.856-4.319,9.992h-2.334L171.321,1475.208z"/>
	<path fill="#FFFFFF" d="M229.403,1536.698c3.735-0.402,6.07-1.091,7.004-2.067c0.934-0.976,1.4-3.523,1.4-7.644v-41.414
		c0-3.424-0.521-5.649-1.564-6.677c-1.043-1.027-3.323-1.665-6.84-1.915v-1.773h26.52v1.773c-3.498,0.25-5.773,0.888-6.825,1.915
		c-1.053,1.027-1.579,3.253-1.579,6.677v18.629h29.041v-18.629c0-3.424-0.514-5.649-1.541-6.677
		c-1.027-1.027-3.315-1.665-6.863-1.915v-1.773h26.52v1.773c-3.518,0.25-5.798,0.888-6.84,1.915
		c-1.043,1.027-1.564,3.253-1.564,6.677v42.534c0,3.468,0.521,5.688,1.564,6.664c1.042,0.975,3.322,1.617,6.84,1.927v1.774h-26.52
		v-1.774c3.766-0.371,6.108-1.053,7.027-2.044c0.918-0.991,1.377-3.547,1.377-7.667v-18.583h-29.041v19.703
		c0,3.468,0.526,5.696,1.579,6.687c1.052,0.991,3.327,1.626,6.825,1.904v1.774h-26.52V1536.698z"/>
	<path fill="#FFFFFF" d="M297.99,1536.698c3.517-0.371,5.797-0.998,6.84-1.881c1.042-0.882,1.564-3.118,1.564-6.71v-42.534
		c0-3.393-0.514-5.61-1.541-6.653c-1.027-1.043-3.315-1.688-6.864-1.938v-1.773h50.799l0.327,13.68h-2.428
		c-0.81-4.214-2.023-6.939-3.642-8.18c-1.619-1.238-5.229-1.858-10.832-1.858h-13.018c-1.405,0-2.271,0.226-2.599,0.677
		c-0.328,0.452-0.492,1.3-0.492,2.545v21.337h14.754c4.077,0,6.676-0.604,7.797-1.812s2.023-3.654,2.708-7.34h2.241v22.085h-2.241
		c-0.716-3.704-1.634-6.155-2.754-7.354s-3.705-1.798-7.75-1.798h-14.754v23.672c0,1.898,0.6,3.02,1.8,3.361
		c1.2,0.343,4.793,0.514,10.779,0.514c6.483,0,11.269-0.707,14.354-2.124c3.086-1.416,5.859-4.848,8.318-10.295h2.662l-4.342,16.154
		H297.99V1536.698z"/>
	<path fill="#FFFFFF" d="M425.548,1475.628c3.579,1.027,5.634,1.541,6.163,1.541c1.37,0,2.342-0.265,2.918-0.794
		c0.575-0.529,1.065-1.291,1.471-2.288h2.101l0.747,20.124h-2.194c-1.961-4.638-3.984-8.093-6.069-10.365
		c-3.767-3.984-8.669-5.977-14.708-5.977c-6.132,0-11.525,2.327-16.178,6.98c-4.654,4.653-6.98,12.318-6.98,22.994
		c0,8.81,2.318,15.688,6.957,20.638c4.638,4.948,10.365,7.423,17.182,7.423c1.151,0,2.505-0.108,4.062-0.326
		c1.556-0.217,3.035-0.559,4.436-1.024c2.272-0.745,3.688-1.389,4.249-1.933c0.561-0.544,0.841-1.344,0.841-2.4v-15.233
		c0-3.692-0.522-5.993-1.564-6.9c-1.043-0.907-3.323-1.472-6.84-1.69v-1.774h24.372v1.774c-2.366,0.156-3.938,0.545-4.716,1.167
		c-1.307,0.997-1.961,3.052-1.961,6.163v18.816c0,1.121-2.747,2.614-8.241,4.482c-5.494,1.867-10.778,2.802-15.851,2.802
		c-9.338,0-17.213-2.724-23.625-8.171c-7.066-6.007-10.599-14.069-10.599-24.186c0-8.902,2.817-16.528,8.451-22.878
		c6.194-7.004,14.411-10.506,24.652-10.506C418.326,1474.087,421.968,1474.601,425.548,1475.628z"/>
	<path fill="#FFFFFF" d="M460.752,1482.305c5.883-5.634,13.12-8.451,21.711-8.451c8.622,0,15.875,2.833,21.757,8.498
		c6.38,6.132,9.572,14.303,9.572,24.512c0,10.365-3.3,18.614-9.898,24.746c-5.915,5.479-13.058,8.218-21.431,8.218
		c-8.965,0-16.404-3.035-22.318-9.105c-6.008-6.193-9.011-14.146-9.011-23.858C451.134,1496.654,454.34,1488.468,460.752,1482.305z
		 M467.902,1529.158c3.958,4.809,8.819,7.214,14.584,7.214c5.64,0,10.462-2.342,14.466-7.027c4.004-4.685,6.007-12.178,6.007-22.481
		c0-10.427-2.026-17.959-6.077-22.598c-4.051-4.638-8.85-6.957-14.396-6.957c-5.734,0-10.588,2.404-14.561,7.214
		c-3.973,4.809-5.959,12.256-5.959,22.341C461.966,1516.918,463.945,1524.349,467.902,1529.158z"/>
	<path fill="#FFFFFF" d="M529.806,1482.305c5.883-5.634,13.12-8.451,21.711-8.451c8.622,0,15.875,2.833,21.757,8.498
		c6.381,6.132,9.572,14.303,9.572,24.512c0,10.365-3.301,18.614-9.898,24.746c-5.915,5.479-13.058,8.218-21.431,8.218
		c-8.965,0-16.404-3.035-22.318-9.105c-6.008-6.193-9.011-14.146-9.011-23.858C520.188,1496.654,523.394,1488.468,529.806,1482.305z
		 M536.956,1529.158c3.958,4.809,8.819,7.214,14.584,7.214c5.64,0,10.462-2.342,14.466-7.027c4.005-4.685,6.007-12.178,6.007-22.481
		c0-10.427-2.025-17.959-6.077-22.598c-4.051-4.638-8.85-6.957-14.396-6.957c-5.734,0-10.588,2.404-14.561,7.214
		c-3.973,4.809-5.959,12.256-5.959,22.341C531.02,1516.918,532.999,1524.349,536.956,1529.158z"/>
	<path fill="#FFFFFF" d="M587.936,1536.698c3.485-0.371,5.758-0.998,6.816-1.881c1.058-0.882,1.588-3.118,1.588-6.71v-42.534
		c0-3.486-0.514-5.728-1.541-6.724s-3.315-1.618-6.863-1.868v-1.773h25.772c8.685,0,16.03,1.432,22.038,4.295
		c10.832,5.136,16.248,14.318,16.248,27.547c0,4.763-0.974,9.292-2.918,13.587c-1.946,4.296-4.879,7.922-8.802,10.879
		c-2.49,1.868-5.073,3.284-7.75,4.249c-4.888,1.806-10.895,2.708-18.022,2.708h-26.566V1536.698z M607.196,1534.177
		c0.762,0.499,2.342,0.747,4.738,0.747c7.471,0,13.618-1.479,18.443-4.438c7.407-4.548,11.111-12.321,11.111-23.318
		c0-9.812-3.051-17.195-9.15-22.149c-5.229-4.236-12.156-6.354-20.777-6.354c-2.147,0-3.604,0.233-4.365,0.701
		c-0.764,0.467-1.145,1.495-1.145,3.083v48.646C606.052,1532.65,606.432,1533.678,607.196,1534.177z"/>
	<path fill="#FFFFFF" d="M679.541,1475.208h54.067l0.514,16.248h-2.288c-1.12-5.104-2.544-8.428-4.271-9.969
		s-5.362-2.311-10.902-2.311h-5.323v48.931c0,3.685,0.576,5.968,1.728,6.85c1.151,0.883,3.673,1.463,7.564,1.741v1.774h-27.874
		v-1.774c4.046-0.31,6.567-0.976,7.563-1.998s1.494-3.593,1.494-7.713v-47.811h-5.369c-5.292,0-8.895,0.763-10.809,2.287
		c-1.915,1.525-3.354,4.856-4.319,9.992h-2.334L679.541,1475.208z"/>
	<path fill="#FFFFFF" d="M737.624,1536.698c3.891-0.278,6.411-0.858,7.563-1.741c1.151-0.882,1.728-3.165,1.728-6.85v-42.534
		c0-3.518-0.576-5.782-1.728-6.794c-1.152-1.011-3.673-1.61-7.563-1.798v-1.773h28.294v1.773c-3.892,0.188-6.413,0.787-7.563,1.798
		c-1.152,1.012-1.728,3.276-1.728,6.794v42.534c0,3.685,0.575,5.968,1.728,6.85c1.15,0.883,3.672,1.463,7.563,1.741v1.774h-28.294
		V1536.698z"/>
	<path fill="#FFFFFF" d="M769,1536.698c3.952-0.404,6.489-1.298,7.61-2.683c1.12-1.384,1.681-4.595,1.681-9.634v-38.815
		c0-3.452-0.545-5.7-1.634-6.742c-1.09-1.041-3.564-1.655-7.424-1.843v-1.773h18.852l21.96,47.629l21.424-47.629h19.005v1.773
		c-3.548,0.25-5.836,0.895-6.863,1.937s-1.541,3.258-1.541,6.648v42.501c0,3.484,0.514,5.716,1.541,6.695
		c1.027,0.98,3.315,1.625,6.863,1.936v1.774H823.72v-1.774c3.858-0.311,6.264-1.003,7.213-2.076
		c0.949-1.072,1.425-3.631,1.425-7.675v-42.921l-24.489,54.446h-1.308l-24.068-52.207v38.116c0,5.226,0.763,8.631,2.288,10.217
		c0.995,1.027,3.222,1.727,6.677,2.1v1.774H769V1536.698z"/>
	<path fill="#FFFFFF" d="M854.022,1536.698c3.517-0.371,5.797-0.998,6.84-1.881c1.042-0.882,1.564-3.118,1.564-6.71v-42.534
		c0-3.393-0.514-5.61-1.541-6.653s-3.315-1.688-6.863-1.938v-1.773h50.799l0.326,13.68h-2.428c-0.81-4.214-2.023-6.939-3.642-8.18
		c-1.619-1.238-5.229-1.858-10.832-1.858h-13.018c-1.405,0-2.271,0.226-2.599,0.677c-0.329,0.452-0.492,1.3-0.492,2.545v21.337
		h14.754c4.078,0,6.677-0.604,7.798-1.812c1.12-1.208,2.022-3.654,2.708-7.34h2.241v22.085h-2.241
		c-0.717-3.704-1.635-6.155-2.755-7.354c-1.121-1.198-3.705-1.798-7.751-1.798h-14.754v23.672c0,1.898,0.6,3.02,1.8,3.361
		c1.2,0.343,4.793,0.514,10.779,0.514c6.483,0,11.268-0.707,14.354-2.124c3.086-1.416,5.859-4.848,8.318-10.295h2.661l-4.342,16.154
		h-51.686V1536.698z"/>
	<path fill="#FFFFFF" d="M917.52,1519.236c1.616,4.296,3.512,7.72,5.688,10.271c3.792,4.452,8.5,6.677,14.126,6.677
		c3.046,0,5.68-0.964,7.902-2.895c2.222-1.93,3.333-4.622,3.333-8.077c0-3.112-1.118-5.82-3.354-8.124
		c-1.46-1.463-4.536-3.657-9.227-6.584l-8.156-5.089c-2.454-1.556-4.413-3.128-5.876-4.716c-2.708-3.019-4.062-6.35-4.062-9.991
		c0-4.824,1.604-8.84,4.81-12.046c3.205-3.206,7.454-4.81,12.746-4.81c2.179,0,4.802,0.537,7.867,1.611
		c3.065,1.073,4.816,1.61,5.253,1.61c1.183,0,2-0.28,2.451-0.841c0.451-0.56,0.801-1.354,1.051-2.381h1.961l2.101,20.357h-2.287
		c-1.558-6.132-4.055-10.412-7.494-12.84s-6.84-3.643-10.202-3.643c-2.614,0-4.895,0.771-6.84,2.312s-2.918,3.682-2.918,6.42
		c0,2.459,0.745,4.561,2.236,6.303c1.491,1.774,3.807,3.627,6.948,5.557l8.397,5.183c5.256,3.237,8.963,6.21,11.119,8.918
		c2.125,2.739,3.188,5.976,3.188,9.711c0,5.012-1.892,9.198-5.673,12.56c-3.782,3.362-8.614,5.043-14.498,5.043
		c-2.957,0-6.046-0.561-9.268-1.681c-3.222-1.121-5.065-1.681-5.532-1.681c-1.121,0-1.876,0.343-2.265,1.026
		c-0.39,0.686-0.646,1.416-0.771,2.194h-2.102l-2.848-20.356H917.52z"/>
</g>
</svg>
